# xmcd
#
# Track frame offsets: 
#        150
#        17892
#        36165
#        51837
#        68135
#        82900
#        100082
#        120157
#        136760
#        158155
#        175397
#
# Disc length: 2544 seconds
#
# Revision: 4
# Processed by: cddbd v1.5.2PL0 Copyright (c) Steve Scherf et al.
# Submitted via: ExactAudioCopyFreeDBPlugin 1.0
#
DISCID=8209ee0b
DTITLE=Tanya Tucker - Complicated
DYEAR=1997
DGENRE=Country
TTITLE0=Ridin' Out The Heartache
TTITLE1=Little Things
TTITLE2=It Hurts Like Love
TTITLE3=I Don't Believe That's How You Feel
TTITLE4=By The Way
TTITLE5=Love Thing
TTITLE6=Wishin' It All Away
TTITLE7=Complicated
TTITLE8=All I Have To Offer You Is Love
TTITLE9=What Your Love Does For Me
TTITLE10=You Don't Do It
EXTD=
EXTT0=
EXTT1=
EXTT2=
EXTT3=
EXTT4=
EXTT5=
EXTT6=
EXTT7=
EXTT8=
EXTT9=
EXTT10=
PLAYORDER=
